<?xml version="1.0" encoding="utf-8"?>
<!-- Generator: Adobe Illustrator 17.1.0, SVG Export Plug-In . SVG Version: 6.00 Build 0)  -->
<!DOCTYPE svg PUBLIC "-//W3C//DTD SVG 1.1//EN" "http://www.w3.org/Graphics/SVG/1.1/DTD/svg11.dtd">
<svg version="1.1" id="Layer_1" xmlns="http://www.w3.org/2000/svg" xmlns:xlink="http://www.w3.org/1999/xlink" x="0px" y="0px"
	 viewBox="0 0 71 68" enable-background="new 0 0 71 68" xml:space="preserve">
<path fill="#FFFFFF" d="M42.7,43.8c2.7,0,5.3,0,7.8,0c1.2,0,1.2-0.2,0.7-1.2c-5.8-10.1-11.7-20.3-17.5-30.4
	c-0.3-0.4-0.6-0.9-0.3-1.5c2-3.4,4-6.9,6.1-10.5C50,18.5,60.4,36.6,71,54.9c-0.6,0-0.9,0-1.3,0c-6.5,0-13,0-19.5,0
	c-0.8,0-1.2-0.2-1.6-1C46.7,50.6,44.7,47.3,42.7,43.8z"/>
<path fill="#FFFFFF" d="M35.7,59c-0.5-1.8-1.7-3.3-2.6-4.9c-3.9-6.9-7.9-13.8-11.9-20.7c-0.5-0.8-0.5-1.4,0-2.2
	c1.6-2.6,3.1-5.2,4.7-8.1c0.9,1.5,1.8,3,2.6,4.4C36,40.8,43.6,53.9,51.2,67.1c0.1,0.1,0.1,0.3,0.2,0.5c0,0.2,0,0.4-0.2,0.4
	c-0.3,0.1-0.7,0-1,0c-16.2,0-32.4,0-48.5,0c-0.5,0-1,0.2-1.4-0.4C1.7,64.8,3.3,62,5,59.3c0.4-0.2,0.9-0.1,1.4-0.1c5,0,10,0,15,0
	c4.4,0,8.8,0,13.2,0C34.9,59.2,35.3,59.3,35.7,59z"/>
<path fill="#FFFFFF" d="M21.8,58c-5.2,0-10.4,0-15.6,0c0.1-0.2,0.3-0.3,0.5-0.2c5,0,10.1,0,15.1,0C21.8,57.9,21.9,57.9,21.8,58
	C21.8,58,21.8,58,21.8,58z"/>
<path fill="#FFFFFF" d="M21.8,58c0-0.1,0-0.1,0-0.2c4.6,0,9.1,0,13.7-0.1c-0.3,0.4-0.8,0.2-1.2,0.2C30.1,58,25.9,58,21.8,58z"/>
</svg>
